# xmcd CD database file
#
# Track frame offsets:
#	150
#	11695
#	34239
#	58629
#	79952
#	114364
#	144669
#	171022
#	197269
#	224955
#	251045
#
# Disc length: 3850 seconds
#
# Revision: 1
# Processed by: cddbd v1.4b42PL1 Copyright (c) Steve Scherf et al.
# Submitted via: CDex 1.40Beta8
#
DISCID=9e0f080b
DTITLE=Geoff Achison and The Souldiggers - Souldiggin' In The UK
DYEAR=2000
DGENRE=Blues
TTITLE0=He's Got A Way With Women
TTITLE1=Begging Bowl
TTITLE2=Voodo
TTITLE3=Castles Made Of Sand
TTITLE4=Whipping Post
TTITLE5=Sugar Sweet
TTITLE6=The Same Thing
TTITLE7=Walking Blues
TTITLE8=Little By Little
TTITLE9=Lucille
TTITLE10=24 Hours
EXTD=YEAR: 2000 ID3G: 0
EXTT0=
EXTT1=
EXTT2=
EXTT3=
EXTT4=
EXTT5=
EXTT6=
EXTT7=
EXTT8=
EXTT9=
EXTT10=
PLAYORDER=
